<?xml version="1.0" encoding="UTF-8"?>
<svg xmlns="http://www.w3.org/2000/svg" xmlns:xlink="http://www.w3.org/1999/xlink" width="300pt" height="30pt" viewBox="0 0 300 30" version="1.1">
<g id="surface1">
<path style=" stroke:none;fill-rule:nonzero;fill:rgb(100%,100%,66.666667%);fill-opacity:1;" d="M 0 21 L 10 18.496094 C 20 16.03125 40 10.96875 60 12 C 80 13.03125 100 19.96875 120 19.5 C 140 19.03125 160 10.96875 180 10.996094 C 200 10.96875 220 19.03125 240 22.003906 C 260 25.03125 280 22.96875 290 22.003906 L 300 21 L 300 30 L 290 30 C 280 30 260 30 240 30 C 220 30 200 30 180 30 C 160 30 140 30 120 30 C 100 30 80 30 60 30 C 40 30 20 30 10 30 L 0 30 Z M 0 21 "/>
</g>
</svg>
